<svg xmlns="http://www.w3.org/2000/svg" viewBox="0 0 361 341"><defs><style>.a{fill:url(#a);}</style><linearGradient id="a" x1="152.5" y1="358.5" x2="152.5" y2="19.5" gradientUnits="userSpaceOnUse"><stop offset="0" stop-color="#fdfdfd"/><stop offset="1" stop-color="#efefef"/></linearGradient></defs><title>Artboard 1</title><path class="a" d="M282.88,89.11,227.22,33.58c-8.44-8.42-22.11-14.08-34-14.08H20a12,12,0,0,0-12,12v315a12,12,0,0,0,12,12H285a12,12,0,0,0,12-12V123.17C297,111.23,291.32,97.55,282.88,89.11ZM201.5,45.25a25.84,25.84,0,0,1,8.77,5.32l55.66,55.54a25.88,25.88,0,0,1,5.38,8.9H201.5ZM273,334.5H32V43.5H177.5V127a12,12,0,0,0,12,12H273ZM86.63,163.5h132a6,6,0,0,1,6,6v11.25a6,6,0,0,1-6,6h-132a6,6,0,0,1-6-6V169.5A6,6,0,0,1,86.63,163.5Zm138,54v11.25a6,6,0,0,1-6,6h-132a6,6,0,0,1-6-6V217.5a6,6,0,0,1,6-6h132A6,6,0,0,1,224.63,217.5Zm0,48v11.25a6,6,0,0,1-6,6h-132a6,6,0,0,1-6-6V265.5a6,6,0,0,1,6-6h132A6,6,0,0,1,224.63,265.5Z"/></svg>