<svg xmlns="http://www.w3.org/2000/svg" width="768" height="768" viewBox="0 0 768 768" shape-rendering="geometricPrecision"><path d="M480 64q58.5 0 111.9 22.9t91.9 61.4 61.4 91.9 22.9 111.9q0 54.5-19.9 104.8t-54 88-81.5 62.6-100.6 30.9v-64.5q53.8-7.7 97.6-38.9t69.1-79.2 25.3-103.6q0-45.5-17.7-87t-47.7-71.5-71.5-47.7-87-17.7q-41.5 0-79.9 14.9t-67.5 40.4-48.7 61-25.4 75.8h-66.5q-53 0-90.5 37.5t-37.5 90.5q0 29 11.4 53.8t29.9 40.6 41.1 24.8 45.6 8.9h128v64h-128q-52.2 0-96.4-25.7t-69.9-69.9-25.7-96.4 25.8-96.4 69.9-69.9 96.4-25.7h16.5q19.8-55.7 59.5-99.1t95.1-68.1 116.9-24.7zM416 320q13.3 0 22.8 9.5l96 96q9.3 9.3 9.3 22.5 0 13.8-9.1 22.9t-22.9 9.1q-13.5 0-22.7-9.2l-41.2-41.5v210.8q0 13.3-9.4 22.6t-22.6 9.4-22.6-9.4-9.4-22.6v-210.7l-41.2 41.5q-9.2 9.3-22.7 9.3-13.2 0-22.6-9.4t-9.4-22.6q0-12.7 9.3-22.5l96-96q9.5-9.5 22.8-9.5z" fill="#fff"/></svg>
